<svg width="20" height="20" viewBox="0 0 20 20" fill="none" xmlns="http://www.w3.org/2000/svg">
<path d="M10 0C6.13 0 3 3.13 3 7C3 12.25 10 20 10 20C10 20 17 12.25 17 7C17 3.13 13.87 0 10 0ZM10 9.5C9.33696 9.5 8.70107 9.23661 8.23223 8.76777C7.76339 8.29893 7.5 7.66304 7.5 7C7.5 6.33696 7.76339 5.70107 8.23223 5.23223C8.70107 4.76339 9.33696 4.5 10 4.5C10.663 4.5 11.2989 4.76339 11.7678 5.23223C12.2366 5.70107 12.5 6.33696 12.5 7C12.5 7.66304 12.2366 8.29893 11.7678 8.76777C11.2989 9.23661 10.663 9.5 10 9.5Z" fill="#F24E1E"/>
</svg>
